<svg preserveAspectRatio="none" overflow="visible" style="display: block;" width="666.697" height="3640.34" viewBox="0 0 666.697 3640.34" fill="none" xmlns="http://www.w3.org/2000/svg">
<path id="Vector 3" d="M476.987 1094.02C475.534 1099.13 473.996 1104.16 472.342 1109.21C465.766 1129.41 457.331 1148.4 448.236 1170.96C448.23 1170.97 448.224 1170.99 448.218 1171C446.576 1175.08 444.947 1179.17 443.258 1183.52C435.224 1204.16 426.5 1228.82 417.084 1260.55C410.781 1278.71 411.531 1301.2 410.859 1328.31C410.823 1330.55 410.788 1332.93 410.756 1335.24C409.845 1409 410.192 1469.06 411.449 1508.78C411.584 1512.93 411.72 1516.7 411.871 1520.4C412.191 1527.68 412.51 1535.3 414.164 1554.29C415.289 1566.79 416.979 1583.57 420.378 1607.83C422.164 1620.74 424.554 1635.71 427.14 1653.5C428.39 1662.27 429.69 1671.82 430.575 1682.2C435.173 1729.31 432.211 1794.07 407.319 1849.59C402.473 1862.9 396.714 1875.88 389.9 1888.18C376.669 1912.48 358.916 1932.71 344.549 1951.33C330.899 1968.89 320.338 1986.02 312.87 2001.94C291.614 2048.42 279.415 2098.17 263.902 2150.66C263.328 2152.66 262.778 2154.66 262.248 2156.66C254.115 2186.13 252.641 2218.4 251.237 2253.64C250.314 2277.03 249.997 2301.56 250.585 2327.47C251.531 2368.72 254.222 2408.94 259.041 2449.25C260.021 2457.43 261.095 2465.63 262.25 2473.84C263.12 2480.03 264.039 2486.25 264.997 2492.45C271.64 2535.3 280.164 2578.92 290.934 2625.73C295.182 2644.14 299.476 2661.71 303.806 2678.61C313.576 2717.38 324.43 2752.45 335.882 2787.85C341.975 2807.21 347.547 2826.79 352.816 2846.99C359.344 2872.01 365.507 2897.97 371.775 2925.81C372.694 2929.9 373.632 2934.1 374.567 2938.32C385.938 2989.88 401.373 3064.21 414.123 3139.42C415.201 3145.82 416.261 3152.26 417.281 3158.65C417.286 3158.68 417.291 3158.72 417.296 3158.75C418.391 3165.61 419.458 3172.53 420.461 3179.33C429.84 3241.33 431.953 3301.92 428.056 3347.3C425.943 3373.84 422.569 3394.72 419.739 3411.63L419.641 3412.07C410.42 3445.46 404.946 3463.66 400.082 3479.73C397.331 3488.75 394.733 3497.09 391.515 3506.99C380.549 3539.76 364.799 3588.27 339.344 3635.22L338.392 3636.94L336.476 3637.6C331.498 3639.23 326.7 3639.77 322.012 3640.12C321.784 3640.14 321.556 3640.15 321.328 3640.17C311.426 3640.72 303.851 3639.8 303.88 3639.04C303.93 3638.17 311.644 3637.76 321.301 3637.2C326.032 3636.87 330.826 3636.34 335.537 3634.79L336.356 3634.51L336.762 3633.78C349.178 3611.43 358.698 3588.48 366.871 3567.61C366.717 3566.07 368.821 3559.21 371.788 3551.21C378.148 3534.08 394.987 3486.39 415.34 3410.87C417.5 3397.67 419.606 3383.63 421.228 3368.73C420.278 3375.69 419.355 3381.51 418.499 3386.57C417.49 3392.53 416.635 3397.11 415.896 3401C415.218 3404.57 414.625 3407.59 414.031 3410.65L414.061 3410.52C412.881 3414.42 411.682 3418.43 410.108 3423.74C403.773 3445.56 393.649 3479.79 381.565 3515.37C378.519 3524.35 375.333 3531.35 374.58 3531.04C373.823 3530.72 375.779 3523.23 378.816 3514.27C378.876 3514.09 378.935 3513.92 378.994 3513.74C390.93 3478.58 401.378 3443.29 407.959 3420.51C409.13 3416.47 410.187 3412.79 411.079 3409.69L410.98 3410.13C411.223 3408.77 411.45 3407.51 411.656 3406.35C412.203 3403.29 412.869 3399.46 413.256 3397.34C413.308 3397.06 413.407 3396.52 413.53 3395.87C413.532 3395.86 413.534 3395.85 413.536 3395.84C413.604 3395.48 413.945 3393.68 414.367 3391.72C414.452 3391.32 414.638 3390.47 414.873 3389.49C414.918 3389.24 414.963 3388.98 415.008 3388.73C415.639 3385.13 416.258 3381.46 416.873 3377.52C419.039 3362.02 423.497 3337.38 423.234 3285.61C422.99 3259.53 420.776 3223.52 414.447 3180.22C409.231 3144.45 402.008 3103.55 393.362 3058.77C394.595 3065.47 395.818 3072.18 397.024 3078.89C400.062 3095.79 403.022 3112.76 405.839 3129.78C406.914 3136.27 407.959 3142.72 408.995 3149.27C410.626 3159.61 412.194 3169.98 413.656 3180.34C413.687 3180.56 413.719 3180.79 413.75 3181.01C414.762 3188.22 415.692 3195.38 416.539 3202.53C416.541 3202.55 416.543 3202.57 416.545 3202.58C417.723 3212.53 418.756 3222.59 419.603 3232.66C419.902 3236.23 420.166 3239.63 420.417 3243.16C421.392 3256.99 422.045 3270.49 422.176 3286.18C422.183 3288.09 422.173 3290.1 422.158 3291.68C422.143 3293.35 422.119 3294.95 422.089 3296.44C422.063 3297.74 422.032 3299.04 422 3300.26C421.996 3300.42 421.991 3300.58 421.987 3300.75C421.95 3302.11 421.911 3303.4 421.871 3304.64C421.831 3305.87 421.788 3307.1 421.747 3308.28C421.746 3308.29 421.746 3308.31 421.746 3308.32C421.702 3309.55 421.667 3310.49 421.619 3311.78C421.559 3313.41 421.503 3314.86 421.434 3316.56C421.367 3318.21 421.293 3319.92 421.212 3321.68C421.131 3323.44 421.045 3325.17 420.95 3326.98C420.853 3328.8 420.749 3330.63 420.637 3332.45C420.524 3334.29 420.401 3336.19 420.271 3338.04C420.142 3339.88 419.996 3341.84 419.845 3343.72C419.497 3348.1 418.963 3352.28 418.389 3355.35C417.82 3358.37 417.266 3360.08 416.891 3360.01C416.513 3359.96 416.34 3358.13 416.36 3355.04C416.385 3351.9 416.596 3347.7 416.908 3343.34C416.993 3342.16 417.075 3340.96 417.155 3339.74C417.203 3339.02 417.247 3338.32 417.292 3337.61C417.41 3335.7 417.524 3333.71 417.626 3331.77C417.728 3329.84 417.825 3327.84 417.913 3325.83C417.999 3323.85 418.079 3321.82 418.153 3319.74C418.226 3317.69 418.292 3315.61 418.352 3313.45C418.411 3311.34 418.468 3309.02 418.514 3306.87C418.548 3305.28 418.587 3303.41 418.614 3301.81C418.642 3300.15 418.667 3298.46 418.686 3296.9C418.705 3295.33 418.72 3293.8 418.729 3292.32C418.73 3292.17 418.731 3292.01 418.732 3291.85C418.739 3290.53 418.742 3289.3 418.741 3288.12C418.74 3286.81 418.733 3285.56 418.722 3284.36C418.709 3283.04 418.695 3282.23 418.677 3281.27C418.402 3268.42 417.52 3252.37 416.199 3237.26C416.035 3235.36 415.865 3233.46 415.688 3231.56C414.759 3221.63 413.653 3211.7 412.384 3201.74C411.509 3194.87 410.551 3187.95 409.512 3180.95C409.471 3180.68 409.431 3180.41 409.39 3180.14C407.807 3169.53 406.108 3158.88 404.34 3148.24C403.237 3141.61 402.141 3135.18 400.992 3128.57C398.006 3111.4 394.857 3094.15 391.615 3076.92C388.375 3059.7 385.022 3042.4 381.596 3025.09C378.189 3007.86 374.57 2989.94 371.035 2972.68C368.439 2959.99 365.776 2946.92 363.294 2934.93C362.807 2932.58 362.328 2930.27 361.859 2928.02C360.996 2923.88 360.154 2919.87 359.311 2915.88C359.307 2915.86 359.303 2915.84 359.299 2915.82C358.133 2910.31 356.99 2904.97 355.818 2899.58C353.333 2888.15 350.783 2876.82 348.139 2865.63C345.488 2854.4 342.737 2843.28 339.799 2832.13C336.883 2821.06 333.737 2809.84 330.429 2798.82C329.576 2795.97 328.719 2793.15 327.852 2790.34C325.321 2782.13 322.696 2773.95 319.991 2765.42C315.196 2750.37 310.599 2735.32 306.191 2719.8C302.507 2706.86 298.989 2693.88 295.543 2680.76C294.893 2678.28 294.205 2675.65 293.56 2673.16C292.13 2667.65 290.742 2662.23 289.344 2656.7C289.339 2656.68 289.333 2656.66 289.328 2656.64C286.762 2646.48 284.242 2636.27 281.783 2626.03C277.994 2610.25 274.331 2594.34 270.842 2578.37C267.348 2562.38 264.015 2546.28 260.895 2530.02C257.776 2513.76 254.803 2497.01 252.181 2480.13C250.662 2470.35 249.249 2460.51 247.982 2450.72C247.294 2445.4 246.65 2440.12 246.049 2434.88C245.595 2430.92 245.166 2426.98 244.755 2423.03C242.809 2404.29 241.376 2386.11 240.326 2368.11C239.279 2350.11 238.611 2332.14 238.319 2313.96C238.029 2295.83 238.124 2277.51 238.612 2259.01C238.663 2257.1 238.72 2255.09 238.779 2253.18C239.303 2236.65 239.797 2220.22 241.141 2203.4C242.588 2184.76 245.606 2165.84 250.72 2147.38C250.759 2147.24 250.798 2147.1 250.837 2146.96C253.607 2136.85 256.471 2126.47 259.285 2116.41C262.158 2106.13 265.024 2096.02 267.925 2086.03C269.136 2081.87 270.281 2077.96 271.499 2073.87C273.214 2068.11 274.998 2062.23 276.774 2056.54C279.776 2046.92 282.835 2037.55 286.038 2028.5C289.248 2019.43 292.616 2010.66 296.213 2002.31C299.943 1993.69 303.342 1986.62 307.794 1978.41C316.876 1962.03 324.493 1951.7 332.022 1941.68C333.672 1939.5 335.322 1937.37 337.011 1935.2C338.868 1932.82 340.773 1930.4 342.746 1927.89C354.089 1913.59 364.822 1899.51 373.445 1884.41C380.884 1871.5 386.926 1858.07 392.029 1844.01C392.979 1841.39 393.971 1838.78 394.936 1836.23C401.405 1819.55 406.849 1803.11 410.276 1785.96C413.758 1768.86 415.508 1751.49 416.036 1733.9C416.538 1717.18 415.914 1700.15 414.559 1683.57C414.49 1682.72 414.416 1681.86 414.338 1681C413.45 1671.12 412.011 1660.53 410.589 1650.64C409.562 1643.51 408.5 1636.43 407.486 1629.49C407.075 1626.68 406.664 1623.84 406.264 1621.04C404.882 1611.38 403.616 1602 402.488 1592.87C401.362 1583.77 400.371 1574.95 399.488 1566.3C398.604 1557.63 397.827 1549.14 397.13 1540.64C396.414 1531.84 395.881 1524.54 395.284 1515.17C395.167 1513.33 395.054 1511.47 394.945 1509.61C394.701 1505.45 394.478 1501.28 394.274 1497.14C393.834 1488.24 393.469 1479.4 393.149 1470.5C392.829 1461.6 392.561 1452.84 392.324 1444.02C392.248 1441.19 392.172 1438.19 392.103 1435.35C391.888 1426.57 391.707 1417.89 391.547 1409.21C391.388 1400.56 391.254 1391.99 391.138 1383.44C391.021 1374.86 390.925 1366.42 390.846 1357.83C390.75 1347.46 390.747 1337.35 390.807 1328.05C390.832 1324.18 390.861 1320.53 390.899 1316.96C391.066 1304.5 391.128 1292.95 392.155 1281.04C392.359 1278.81 392.611 1276.55 392.932 1274.28C393.866 1267.49 395.534 1260.85 397.291 1254.79C398.071 1252.08 398.834 1249.46 399.599 1246.86C402.687 1236.37 405.854 1226.09 409.18 1215.84C412.465 1205.71 415.979 1195.42 419.564 1185.46C423.212 1175.32 426.84 1165.75 430.841 1155.48C434.785 1145.34 438.875 1135.13 443.008 1124.03C445.649 1116.93 448.211 1109.63 450.55 1102.15C451.858 1097.96 453.082 1093.83 454.267 1089.59C457.585 1077.74 460.434 1065.47 462.781 1053.23C465.147 1040.94 467.056 1028.47 468.755 1016.03C470.464 1003.54 471.991 990.991 473.663 978.416C475.324 965.878 477.215 952.868 479.34 940.671C482.755 920.947 487.043 901.442 492.353 882.1C493.932 876.342 495.594 870.606 497.368 864.795C501.376 851.676 505.447 838.516 509.621 825.504C515.65 806.823 521.825 788.09 529.465 769.45C537.047 751.028 546.967 731.398 562.68 716.369C562.947 716.107 563.216 715.847 563.486 715.587C566.144 713.032 568.761 710.324 571.385 707.516C581.467 696.862 591.384 684.225 605.954 674.354C606.054 674.288 606.154 674.221 606.255 674.155C611.248 670.847 616.774 668.022 622.646 666.051C629.751 663.355 641.005 663.218 648.818 668.681C656.654 674.09 663.272 681.008 665.625 692.53C665.906 694.169 666.135 695.826 666.309 697.496C667.166 705.763 666.635 714.072 664.386 722.193C663.142 726.677 661.389 731.002 659.167 735.057C657.812 737.503 655.916 741.339 652.543 744.951C647.691 750.412 639.842 753.352 633.84 753.765C631.314 754.003 628.811 754.198 626.314 754.354C619.222 754.798 612.331 754.924 605.452 754.867C599.147 754.814 592.945 754.612 586.257 754.34C585.646 754.315 585.037 754.29 584.428 754.264C577.122 753.958 568.939 753.562 561.416 753.347C559.002 753.277 556.605 753.224 554.214 753.192C536.345 752.956 518.624 752.481 500.564 751.081C480.008 749.474 459.359 746.732 438.805 741.53C430.785 739.494 422.779 737.07 414.888 734.164C405.018 730.529 395.305 726.128 385.996 720.793C383.84 719.557 381.653 718.279 379.514 717.004C361.422 706.215 344.099 694.233 327.404 681.248C310.782 668.309 294.8 654.35 279.727 639.566C268.257 628.316 257.204 616.471 246.809 604.164C243.489 600.232 240.323 596.238 237.262 592.222C223.022 573.44 210.559 554.059 198.519 534.287C186.539 514.542 175.224 494.505 164.332 474.338C157.141 461.017 150.184 447.716 143.324 434.261C139.74 427.229 136.22 420.164 132.804 413.013C122.793 392.153 114.001 370.674 106.099 349.055C101.356 336.11 96.895 323.165 92.5349 310.102C90.2273 303.52 88.0489 297.205 85.9465 291.04C85.8684 290.811 85.7903 290.582 85.7122 290.353C69.8723 243.609 59.038 209.579 45.0032 164.755C43.6431 160.442 42.5313 156.985 41.1644 152.725C40.9043 151.914 40.6258 151.043 40.3477 150.176C38.5756 144.648 36.5407 138.264 33.7819 129.377C28.2778 111.651 20.0501 84.4205 10.1092 49.0416C7.59585 40.0987 6.64921 34.2231 7.98958 35.9068C8.9313 37.0925 10.7504 41.6896 12.6199 47.4125C9.50208 36.7399 6.40183 26.1006 3.30908 15.4855C2.07452 11.2478 1.0564 7.22858 0.487406 4.32552C-0.0810151 1.42404 -0.155785 -0.125754 0.281631 0.00798953C0.719163 0.141747 1.63814 1.95682 2.84166 5.05378C4.04437 8.14904 5.43175 12.2702 6.70369 16.5162C10.078 27.7828 13.4413 39.0095 16.8128 50.2342C20.1886 61.474 23.5568 72.6587 26.9423 83.8691C30.3265 95.0748 33.7196 106.275 37.1372 117.517C40.5409 128.711 43.9609 139.922 47.4011 151.145C50.8628 162.439 54.2739 173.513 57.7629 184.777C59.857 191.538 61.9772 198.36 64.0642 205.044C64.8478 207.554 65.6083 209.983 66.366 212.401C66.9951 214.409 67.6239 216.416 68.2681 218.467C75.0801 240.143 82.0324 261.966 89.1545 283.574C89.7978 285.525 90.4349 287.45 91.0656 289.349C97.6449 309.145 104.391 328.803 111.724 348.318C119.747 369.713 128.659 390.918 138.754 411.485C142.026 418.186 145.389 424.812 148.819 431.424C155.934 445.141 163.124 458.647 170.584 472.218C181.559 492.173 192.975 512.03 204.96 531.443C214.256 546.479 223.812 561.176 234.092 575.494C238.19 581.091 242.326 586.523 246.622 591.83C248.583 594.251 250.68 596.764 252.734 599.124C263.593 611.604 275.094 623.475 286.935 634.66C273.957 622.152 262.89 610.327 253.02 598.881C243.971 588.324 236.297 577.885 229.027 567.556C226.979 564.635 224.981 561.733 223.032 558.859C203.028 529.151 185.367 499.499 163.424 458.626C158.406 449.242 153.64 440.135 149.085 431.287C119.111 374.034 104.254 326.025 91.7973 289.108C82.5857 260.982 75.6366 238.638 70.0475 220.573C56.0557 175.13 50.4146 155.455 45.3696 137.049C38.2571 111.048 23.6387 61.1016 16.1225 36.0739C13.3876 26.975 11.8192 19.4493 12.6128 19.2523C13.4091 19.0634 16.268 26.2774 19.0031 35.377C26.9407 61.8064 42.7795 115.829 51.265 146.772C55.0573 160.554 59.5287 176.365 73.3212 221.139C78.7674 238.731 85.5845 260.633 94.607 288.18C106.992 324.85 121.718 372.613 151.714 429.93C156.307 438.85 161.118 448.04 166.186 457.516C187.306 496.837 204.253 525.406 223.804 554.694C225.753 557.596 227.715 560.47 229.698 563.327C229.71 563.344 229.723 563.362 229.735 563.38C237.38 574.348 245.53 585.573 255.28 596.958C269.225 613.113 285.658 630.219 306.542 648.729C331.325 670.671 360.798 692.682 391.941 710.437C451.865 743.171 520.193 739.441 554.367 740.653C562.293 740.711 568.651 740.946 573.155 741.096C580.026 741.332 586.656 741.607 593.637 741.788C604.85 742.042 617.038 742.246 632.603 740.698C639.014 740.278 644.051 736.273 647.505 728.682C652.334 719.833 654.673 707.986 652.296 694.837C651.311 689.346 647.005 683.811 641.398 680.135C638.259 678.076 634.38 677.377 630.297 678.19C629.227 678.394 628.145 678.689 627.056 679.062C613.156 683.544 600.673 695.774 588.207 709.803C583.391 715.253 578.568 720.728 573.4 725.846C557.273 741.468 548.599 761.811 541.541 779.951C533.672 800.647 527.79 820.399 522.159 839.501C520.542 845.026 518.934 850.614 517.369 856.104C516.062 860.68 514.82 865.073 513.514 869.692C511.017 878.539 508.75 887.296 506.691 895.947C504.202 906.396 501.917 917.374 499.85 929.064C491.279 971.437 491.905 1024.22 473.693 1091.67C472.138 1097.2 470.491 1102.64 468.736 1108.04C447.316 1166.68 426.645 1214.37 414.221 1259.72C413.361 1262.64 412.579 1265.46 411.918 1268.24C412.603 1265.38 413.396 1262.56 414.238 1259.72C424.089 1226.52 433.201 1200.98 441.626 1179.53C443.344 1175.15 445.028 1170.95 446.668 1166.91C455.803 1144.48 463.55 1126.68 469.527 1108.3C471.153 1103.33 472.657 1098.42 474.083 1093.42C500.472 978.451 496.748 936.057 510.652 889.378C512.173 883.346 513.852 877.036 515.749 870.369C517.739 863.383 519.741 856.37 521.918 848.867C530.706 819.884 539.351 785.536 555.923 753.257C560.905 744.018 567.055 735.292 575 727.5C592.01 711.058 605.179 688.862 627.623 680.736C629.898 679.926 632.182 679.477 634.334 679.559C634.347 679.56 634.359 679.561 634.371 679.561C636.559 679.646 638.611 680.28 640.527 681.48C644.288 683.86 647.717 687.409 649.624 691.316C650.222 692.548 650.66 693.814 650.9 695.078C653.02 706.181 651.893 718.052 646.498 728.132C643.285 734.985 639.357 739.103 632.505 739.67C606.887 742.527 580.603 739.855 554.378 739.757C550.26 739.741 546.116 739.711 542.01 739.657C536.51 739.584 529.924 739.471 522.373 739.214C492.303 737.427 443.039 737.648 392.198 709.989C371.031 697.865 349.212 682.903 327.613 665.334C311.699 652.355 295.851 637.989 279.045 620.393C273.933 615.028 268.738 609.351 263.466 603.297C261.294 600.802 259.102 598.234 256.891 595.588C236.231 570.472 215.024 537.067 189.928 492.877C178.914 473.393 167.147 451.553 155.133 428.165C142.199 403.253 130.009 376.265 119.465 347.85C111.988 327.902 105.039 307.479 98.2939 286.962C95.914 279.715 93.5602 272.449 91.2245 265.168C64.5692 181.571 41.7873 104.343 18.8089 27.359C18.8042 27.3433 18.7995 27.3277 18.7948 27.312C16.0882 18.2187 14.603 10.8982 15.481 10.9828C16.3594 11.0695 19.2661 18.5154 21.9717 27.6042C44.96 104.619 67.6837 181.638 94.2378 264.874C96.5049 271.938 98.7912 278.993 101.103 286.034C107.799 306.399 114.726 326.768 122.189 346.686C132.678 374.963 144.8 401.843 157.762 426.807C169.994 450.618 181.964 472.815 193.181 492.613C217.804 535.886 238.847 568.988 259.156 593.661C262.15 597.245 265.11 600.683 268.032 603.992C273.602 610.297 278.997 616.091 284.228 621.489C300.909 638.65 315.795 651.936 330.848 664.144C351.929 681.18 373.148 695.671 393.671 707.424C441.562 733.614 488.672 734.258 518.599 736.098C526.323 736.404 533.123 736.547 538.923 736.641C544.071 736.723 549.238 736.765 554.415 736.784C580.779 736.884 606.9 739.532 632.224 736.699C638.208 735.94 640.397 733.672 643.877 726.699C648.886 717.312 649.983 706.205 647.955 695.594C647.955 695.592 647.954 695.59 647.954 695.588C647.233 691.546 643.278 686.706 638.902 683.99C638.296 683.615 637.693 683.321 637.083 683.098C637.074 683.095 637.065 683.092 637.057 683.09C634.688 682.22 631.873 682.392 628.583 683.569C607.678 690.996 594.409 712.744 577.074 729.646C570.27 736.338 564.837 743.645 560.309 751.516C543.994 781.435 536.091 812.659 527.522 840.472C524.453 850.912 521.525 861.127 518.637 871.245C517.349 875.758 516.177 880.051 515.002 884.518C499.908 933.687 503.577 977.786 476.987 1094.02ZM17.4449 63.9065C23.6894 85.8848 29.0127 103.732 33.0649 116.991C29.7245 105.701 26.3998 94.417 23.0889 83.1485C21.2045 76.7349 19.3225 70.3183 17.4449 63.9065ZM584.135 709.891C586.588 707.12 589.05 704.316 591.569 701.544C584.754 708.889 578.259 716.515 571.097 723.462C570.866 723.686 570.637 723.911 570.409 724.136C561.294 733.009 554.072 743.655 548.34 754.952C554.392 743.061 562.019 732.223 571.157 723.525C575.763 719.072 580.012 714.434 584.135 709.891ZM470.799 1091.03C487.988 1027.98 487.726 979.351 495.436 936.973C497.442 924.696 499.719 912.915 502.359 901.292C503.458 896.454 504.587 891.714 505.816 886.816C498.15 914.853 493.404 941.067 490.191 962.689C481.625 1027.3 475.942 1064.55 465.998 1095.87C464.927 1099.39 463.879 1102.68 462.745 1106.1C460.931 1111.57 459.007 1116.94 456.97 1122.33C454.386 1129.58 451.522 1137.05 448.6 1144.54C444.497 1155.05 440.032 1166.38 435.992 1177.22C431.918 1188.13 427.996 1199.21 424.317 1210.23C420.616 1221.32 417.145 1232.34 413.823 1243.43C412.351 1248.35 410.895 1253.32 409.459 1258.33C407.917 1263.69 406.599 1268.94 405.78 1274.2C405.688 1274.78 405.601 1275.36 405.52 1275.93C404.058 1286.63 403.967 1297.39 403.77 1307.28C403.652 1315.19 403.621 1322 403.611 1328.22C403.61 1329.87 403.611 1331.57 403.617 1333.16C403.647 1342.44 403.709 1351.95 403.794 1361.4C403.879 1370.82 403.986 1380.21 404.117 1389.58C404.248 1398.97 404.402 1408.25 404.584 1417.56C404.643 1420.58 404.708 1423.72 404.773 1426.71C404.803 1428.08 404.834 1429.46 404.865 1430.83C404.637 1412.61 404.544 1393.7 404.586 1374.15C404.62 1359.42 404.738 1344.12 404.989 1328.24C405.289 1313.63 405.257 1298.3 406.57 1282.86C407.264 1274.85 408.906 1267.1 411.379 1258.89C423.754 1213.73 444.374 1166 465.922 1107.13C467.644 1101.82 469.266 1096.48 470.799 1091.03ZM428.823 1705.83C428.582 1699.97 428.153 1692.19 427.299 1682.48C426.986 1678.91 426.584 1675.1 426.096 1671.05C425.671 1667.52 425.171 1663.75 424.624 1659.87C424.636 1659.97 424.649 1660.06 424.661 1660.15C425.656 1667.77 426.492 1674.99 427.091 1682.5C427.253 1684.54 427.404 1686.58 427.544 1688.63C428.722 1705.94 429.068 1722.89 428.268 1739.96C427.46 1757.09 425.455 1774.19 421.819 1790.99C418.249 1807.82 412.661 1824.33 406.532 1840.04C405.483 1842.79 404.444 1845.5 403.46 1848.18C398.562 1861.56 392.807 1874.48 385.844 1886.95C383.171 1891.74 380.333 1896.45 377.339 1901.06C384.089 1890.83 390.342 1879.64 395.902 1867.39C398.674 1861.29 401.288 1854.93 403.749 1848.29C405.196 1844.39 406.769 1840.4 408.346 1836.3C409.946 1832.13 411.88 1827.06 413.949 1821.03C422.383 1797.34 431.246 1757.73 428.823 1705.83ZM304.181 2013.22C302.686 2016.83 301.268 2020.43 299.922 2023.97C296.044 2034.19 292.635 2044.23 289.413 2054.19C287.138 2061.23 285.005 2068.09 282.908 2075C282.048 2077.83 281.13 2080.88 280.304 2083.66C278.865 2088.49 277.483 2093.19 276.073 2098.03C286.061 2064.87 295.494 2032 310.268 2000.52C310.467 2000.11 310.667 1999.69 310.869 1999.27C308.469 2003.95 306.241 2008.63 304.181 2013.22Z" fill="#DB3434"/>
</svg>
