<svg preserveAspectRatio="none" overflow="visible" style="display: block;" width="378.362" height="86.7969" viewBox="0 0 378.362 86.7969" fill="none" xmlns="http://www.w3.org/2000/svg">
<g id="Union">
<mask id="path-1-inside-1_0_46" fill="white">
<path d="M43.9395 86.7969H18.3086V67.2764C12.3981 70.6 6.11026 72.8477 0 72.8477V56.1094C6.11026 56.1094 12.3981 53.8607 18.3086 50.5371C29.3985 44.3008 39.1623 34.2781 43.9395 28.2119V86.7969ZM100.083 45.2988H92.1494L81.7754 86.7969H56.1445L66.5186 45.2988H52.4824V28.2119H100.083V45.2988ZM157.448 86.6572H131.817V0H157.448V86.6572ZM197.015 32.9297H209.587L235.977 0H264.855L235.229 36.8916C255.27 46.0525 264.357 66.231 264.606 86.6572H239.337C237.47 55.9561 218.425 53.7276 204.11 53.7275H197.015V86.6572H170.875V0H197.015V32.9297ZM358.796 0C371.611 0 378.362 6.18134 378.362 23.5127C378.362 56.2362 355.135 86.6569 323.439 86.6572C291.744 86.6572 268.516 56.2364 268.516 23.5127C268.516 6.18134 275.267 0 288.082 0H358.796ZM296.32 20.3613C293.574 20.3614 292.545 21.9372 292.545 24.8457C292.545 46.6615 306.161 66.2959 323.439 66.2959C340.717 66.2955 354.333 46.6613 354.333 24.8457C354.333 21.9372 353.304 20.3614 350.558 20.3613H296.32ZM27.4688 2.66797C30.723 -0.586269 33.6691 -1.0698 37.1211 2.38184C43.6391 8.89992 43.7997 20.8585 35.751 28.9072C27.7023 36.9553 15.7446 36.7949 9.22656 30.2773C5.77487 26.8255 6.25777 23.8791 9.51172 20.625L27.4688 2.66797ZM32.3447 11.125C30.66 11.1254 29.2941 12.492 29.2939 14.1768C29.2942 15.8615 30.66 17.2271 32.3447 17.2275C34.0298 17.2275 35.3962 15.8617 35.3965 14.1768C35.3963 12.4917 34.0298 11.125 32.3447 11.125ZM95.1992 17.2266H57.3633V0.139648H95.1992V17.2266ZM65.2969 5.02148C63.6121 5.02187 62.2463 6.38848 62.2461 8.07324C62.2461 9.75816 63.612 11.1236 65.2969 11.124C66.982 11.124 68.3486 9.75836 68.3486 8.07324C68.3484 6.38828 66.9819 5.02155 65.2969 5.02148Z"/>
</mask>
<path d="M43.9395 86.7969H18.3086V67.2764C12.3981 70.6 6.11026 72.8477 0 72.8477V56.1094C6.11026 56.1094 12.3981 53.8607 18.3086 50.5371C29.3985 44.3008 39.1623 34.2781 43.9395 28.2119V86.7969ZM100.083 45.2988H92.1494L81.7754 86.7969H56.1445L66.5186 45.2988H52.4824V28.2119H100.083V45.2988ZM157.448 86.6572H131.817V0H157.448V86.6572ZM197.015 32.9297H209.587L235.977 0H264.855L235.229 36.8916C255.27 46.0525 264.357 66.231 264.606 86.6572H239.337C237.47 55.9561 218.425 53.7276 204.11 53.7275H197.015V86.6572H170.875V0H197.015V32.9297ZM358.796 0C371.611 0 378.362 6.18134 378.362 23.5127C378.362 56.2362 355.135 86.6569 323.439 86.6572C291.744 86.6572 268.516 56.2364 268.516 23.5127C268.516 6.18134 275.267 0 288.082 0H358.796ZM296.32 20.3613C293.574 20.3614 292.545 21.9372 292.545 24.8457C292.545 46.6615 306.161 66.2959 323.439 66.2959C340.717 66.2955 354.333 46.6613 354.333 24.8457C354.333 21.9372 353.304 20.3614 350.558 20.3613H296.32ZM27.4688 2.66797C30.723 -0.586269 33.6691 -1.0698 37.1211 2.38184C43.6391 8.89992 43.7997 20.8585 35.751 28.9072C27.7023 36.9553 15.7446 36.7949 9.22656 30.2773C5.77487 26.8255 6.25777 23.8791 9.51172 20.625L27.4688 2.66797ZM32.3447 11.125C30.66 11.1254 29.2941 12.492 29.2939 14.1768C29.2942 15.8615 30.66 17.2271 32.3447 17.2275C34.0298 17.2275 35.3962 15.8617 35.3965 14.1768C35.3963 12.4917 34.0298 11.125 32.3447 11.125ZM95.1992 17.2266H57.3633V0.139648H95.1992V17.2266ZM65.2969 5.02148C63.6121 5.02187 62.2463 6.38848 62.2461 8.07324C62.2461 9.75816 63.612 11.1236 65.2969 11.124C66.982 11.124 68.3486 9.75836 68.3486 8.07324C68.3484 6.38828 66.9819 5.02155 65.2969 5.02148Z" fill="white"/>
<path d="M43.9395 86.7969V87.3596H44.5022V86.7969H43.9395ZM18.3086 86.7969H17.7458V87.3596H18.3086V86.7969ZM18.3086 67.2764H18.8714V66.3143L18.0328 66.7858L18.3086 67.2764ZM0 72.8477H-0.56277V73.4104H0V72.8477ZM0 56.1094V55.5466H-0.56277V56.1094H0ZM18.3086 50.5371L18.5844 51.0276H18.5844L18.3086 50.5371ZM43.9395 28.2119H44.5022V26.5877L43.4973 27.8637L43.9395 28.2119ZM100.083 45.2988V45.8616H100.646V45.2988H100.083ZM92.1494 45.2988V44.7361H91.71L91.6034 45.1623L92.1494 45.2988ZM81.7754 86.7969V87.3596H82.2148L82.3214 86.9334L81.7754 86.7969ZM56.1445 86.7969L55.5986 86.6604L55.4238 87.3596H56.1445V86.7969ZM66.5186 45.2988L67.0645 45.4353L67.2393 44.7361H66.5186V45.2988ZM52.4824 45.2988H51.9197V45.8616H52.4824V45.2988ZM52.4824 28.2119V27.6491H51.9197V28.2119H52.4824ZM100.083 28.2119H100.646V27.6491H100.083V28.2119ZM157.448 86.6572V87.22H158.011V86.6572H157.448ZM131.817 86.6572H131.255V87.22H131.817V86.6572ZM131.817 0V-0.56277H131.255V0H131.817ZM157.448 0H158.011V-0.56277H157.448V0ZM197.015 32.9297H196.452V33.4925H197.015V32.9297ZM209.587 32.9297V33.4925H209.857L210.026 33.2816L209.587 32.9297ZM235.977 0V-0.56277H235.706L235.537 -0.351933L235.977 0ZM264.855 0L265.294 0.352377L266.029 -0.56277H264.855V0ZM235.229 36.8916L234.791 36.5392L234.338 37.1029L234.996 37.4034L235.229 36.8916ZM264.606 86.6572V87.22H265.176L265.169 86.6504L264.606 86.6572ZM239.337 86.6572L238.775 86.6914L238.807 87.22H239.337V86.6572ZM204.11 53.7275V53.1648V53.1648V53.7275ZM197.015 53.7275V53.1648H196.452V53.7275H197.015ZM197.015 86.6572V87.22H197.577V86.6572H197.015ZM170.875 86.6572H170.312V87.22H170.875V86.6572ZM170.875 0V-0.56277H170.312V0H170.875ZM197.015 0H197.577V-0.56277H197.015V0ZM378.362 23.5127H378.925V23.5127H378.362ZM323.439 86.6572V87.22V87.22V86.6572ZM268.516 23.5127H267.953V23.5127H268.516ZM296.32 20.3613V19.7986V19.7986V20.3613ZM292.545 24.8457L291.982 24.8457V24.8457H292.545ZM323.439 66.2959V66.8587V66.8587V66.2959ZM354.333 24.8457H354.896V24.8457L354.333 24.8457ZM350.558 20.3613V19.7986V19.7986V20.3613ZM37.1211 2.38184L37.519 1.9839L37.519 1.98388L37.1211 2.38184ZM35.751 28.9072L36.1489 29.3052L36.1489 29.3052L35.751 28.9072ZM9.22656 30.2773L8.82861 30.6753L8.82864 30.6753L9.22656 30.2773ZM9.51172 20.625L9.11378 20.2271L9.11377 20.2271L9.51172 20.625ZM32.3447 11.125V10.5622L32.3446 10.5622L32.3447 11.125ZM29.2939 14.1768L28.7312 14.1767V14.1768L29.2939 14.1768ZM32.3447 17.2275L32.3446 17.7903H32.3447V17.2275ZM35.3965 14.1768L35.9593 14.1768V14.1767L35.3965 14.1768ZM95.1992 17.2266V17.7893H95.762V17.2266H95.1992ZM57.3633 17.2266H56.8005V17.7893H57.3633V17.2266ZM57.3633 0.139648V-0.423122H56.8005V0.139648H57.3633ZM95.1992 0.139648H95.762V-0.423122H95.1992V0.139648ZM65.2969 5.02148L65.2969 4.45871H65.2967L65.2969 5.02148ZM62.2461 8.07324L61.6833 8.07317V8.07325L62.2461 8.07324ZM65.2969 11.124L65.2967 11.6868L65.2969 11.6868L65.2969 11.124ZM68.3486 8.07324L68.9114 8.07325V8.07317L68.3486 8.07324ZM43.9395 86.7969V86.2341H18.3086V86.7969V87.3596H43.9395V86.7969ZM18.3086 86.7969H18.8714V67.2764H18.3086H17.7458V86.7969H18.3086ZM18.3086 67.2764L18.0328 66.7858C12.1681 70.0837 5.97753 72.2849 0 72.2849V72.8477V73.4104C6.24298 73.4104 12.6281 71.1163 18.5844 67.7669L18.3086 67.2764ZM0 72.8477H0.56277V56.1094H0H-0.56277V72.8477H0ZM0 56.1094V56.6721C6.24303 56.6721 12.6282 54.377 18.5844 51.0276L18.3086 50.5371L18.0328 50.0466C12.1681 53.3445 5.97749 55.5466 0 55.5466V56.1094ZM18.3086 50.5371L18.5844 51.0276C29.7585 44.744 39.5754 34.663 44.3816 28.5601L43.9395 28.2119L43.4973 27.8637C38.7491 33.8931 29.0386 43.8575 18.0327 50.0466L18.3086 50.5371ZM43.9395 28.2119H43.3767V86.7969H43.9395H44.5022V28.2119H43.9395ZM100.083 45.2988V44.7361H92.1494V45.2988V45.8616H100.083V45.2988ZM92.1494 45.2988L91.6034 45.1623L81.2294 86.6604L81.7754 86.7969L82.3214 86.9334L92.6954 45.4353L92.1494 45.2988ZM81.7754 86.7969V86.2341H56.1445V86.7969V87.3596H81.7754V86.7969ZM56.1445 86.7969L56.6905 86.9334L67.0645 45.4353L66.5186 45.2988L65.9726 45.1623L55.5986 86.6604L56.1445 86.7969ZM66.5186 45.2988V44.7361H52.4824V45.2988V45.8616H66.5186V45.2988ZM52.4824 45.2988H53.0452V28.2119H52.4824H51.9197V45.2988H52.4824ZM52.4824 28.2119V28.7747H100.083V28.2119V27.6491H52.4824V28.2119ZM100.083 28.2119H99.5202V45.2988H100.083H100.646V28.2119H100.083ZM157.448 86.6572V86.0945H131.817V86.6572V87.22H157.448V86.6572ZM131.817 86.6572H132.38V0H131.817H131.255V86.6572H131.817ZM131.817 0V0.56277H157.448V0V-0.56277H131.817V0ZM157.448 0H156.885V86.6572H157.448H158.011V0H157.448ZM197.015 32.9297V33.4925H209.587V32.9297V32.3669H197.015V32.9297ZM209.587 32.9297L210.026 33.2816L236.416 0.351933L235.977 0L235.537 -0.351933L209.148 32.5778L209.587 32.9297ZM235.977 0V0.56277H264.855V0V-0.56277H235.977V0ZM264.855 0L264.417 -0.352377L234.791 36.5392L235.229 36.8916L235.668 37.244L265.294 0.352377L264.855 0ZM235.229 36.8916L234.996 37.4034C254.782 46.448 263.797 66.3858 264.044 86.6641L264.606 86.6572L265.169 86.6504C264.918 66.0762 255.759 45.657 235.463 36.3798L235.229 36.8916ZM264.606 86.6572V86.0945H239.337V86.6572V87.22H264.606V86.6572ZM239.337 86.6572L239.899 86.6231C238.958 71.1504 233.673 62.7262 226.697 58.2072C219.764 53.7155 211.275 53.1648 204.11 53.1648V53.7275V54.2903C211.26 54.2903 219.451 54.8539 226.086 59.1518C232.678 63.4224 237.849 71.4629 238.775 86.6914L239.337 86.6572ZM204.11 53.7275V53.1648H197.015V53.7275V54.2903H204.11V53.7275ZM197.015 53.7275H196.452V86.6572H197.015H197.577V53.7275H197.015ZM197.015 86.6572V86.0945H170.875V86.6572V87.22H197.015V86.6572ZM170.875 86.6572H171.438V0H170.875H170.312V86.6572H170.875ZM170.875 0V0.56277H197.015V0V-0.56277H170.875V0ZM197.015 0H196.452V32.9297H197.015H197.577V0H197.015ZM358.796 0V0.56277C365.121 0.56277 369.824 2.08738 372.964 5.63036C376.119 9.19018 377.8 14.9008 377.8 23.5127H378.362H378.925C378.925 14.7933 377.23 8.7475 373.806 4.88382C370.367 1.00329 365.286 -0.56277 358.796 -0.56277V0ZM378.362 23.5127H377.8C377.8 56.0245 354.733 86.0942 323.439 86.0945V86.6572V87.22C355.536 87.2197 378.925 56.4479 378.925 23.5127H378.362ZM323.439 86.6572V86.0945C292.145 86.0945 269.078 56.0247 269.078 23.5127H268.516H267.953C267.953 56.4481 291.343 87.22 323.439 87.22V86.6572ZM268.516 23.5127H269.078C269.078 14.9008 270.759 9.19018 273.914 5.63036C277.054 2.08738 281.757 0.56277 288.082 0.56277V0V-0.56277C281.592 -0.56277 276.511 1.00329 273.072 4.88382C269.648 8.7475 267.953 14.7933 267.953 23.5127H268.516ZM288.082 0V0.56277H358.796V0V-0.56277H288.082V0ZM296.32 20.3613V19.7986C294.838 19.7986 293.703 20.229 292.962 21.1632C292.244 22.0688 291.982 23.3449 291.982 24.8457L292.545 24.8457L293.108 24.8457C293.108 23.4379 293.361 22.4719 293.844 21.8625C294.304 21.2817 295.057 20.9241 296.32 20.9241V20.3613ZM292.545 24.8457H291.982C291.982 35.865 295.42 46.3452 301.058 54.0831C306.696 61.8198 314.572 66.8587 323.439 66.8587V66.2959V65.7331C315.029 65.7331 307.458 60.9548 301.968 53.4203C296.478 45.887 293.108 35.6422 293.108 24.8457H292.545ZM323.439 66.2959V66.8587C332.307 66.8585 340.183 61.8195 345.82 54.0829C351.458 46.3451 354.896 35.8649 354.896 24.8457H354.333H353.77C353.77 35.6421 350.4 45.8869 344.911 53.4201C339.421 60.9546 331.85 65.733 323.439 65.7331V66.2959ZM354.333 24.8457L354.896 24.8457C354.896 23.345 354.634 22.0688 353.916 21.1632C353.175 20.229 352.04 19.7986 350.558 19.7986V20.3613V20.9241C351.821 20.9241 352.574 21.2817 353.034 21.8625C353.517 22.4719 353.77 23.4379 353.77 24.8457L354.333 24.8457ZM350.558 20.3613V19.7986H296.32V20.3613V20.9241H350.558V20.3613ZM27.4688 2.66797L27.8667 3.06591C29.4571 1.47546 30.8838 0.655699 32.2551 0.571923C33.6062 0.489384 35.0574 1.11417 36.7232 2.77979L37.1211 2.38184L37.519 1.98388C35.7328 0.197861 33.985 -0.661401 32.1865 -0.551524C30.4082 -0.442883 28.7346 0.606236 27.0708 2.27003L27.4688 2.66797ZM37.1211 2.38184L36.7232 2.77977C42.9982 9.05488 43.206 20.6564 35.353 28.5093L35.751 28.9072L36.1489 29.3052C44.3935 21.0606 44.28 8.74496 37.519 1.9839L37.1211 2.38184ZM35.751 28.9072L35.3531 28.5093C27.5002 36.3616 15.8995 36.154 9.62449 29.8794L9.22656 30.2773L8.82864 30.6753C15.5896 37.4358 27.9044 37.5491 36.1489 29.3052L35.751 28.9072ZM9.22656 30.2773L9.62451 29.8794C7.95886 28.2137 7.33389 26.7624 7.41625 25.4113C7.49985 24.0399 8.3194 22.6133 9.90967 21.0229L9.51172 20.625L9.11377 20.2271C7.4501 21.8908 6.40121 23.5644 6.2928 25.3428C6.18315 27.1413 7.04258 28.8891 8.82861 30.6753L9.22656 30.2773ZM9.51172 20.625L9.90966 21.0229L27.8667 3.06591L27.4688 2.66797L27.0708 2.27003L9.11378 20.2271L9.51172 20.625ZM32.3447 11.125L32.3446 10.5622C30.349 10.5627 28.7314 12.1813 28.7312 14.1767L29.2939 14.1768L29.8567 14.1768C29.8568 12.8026 30.971 11.6881 32.3449 11.6878L32.3447 11.125ZM29.2939 14.1768L28.7312 14.1768C28.7315 16.1724 30.3493 17.7898 32.3446 17.7903L32.3447 17.2275L32.3449 16.6648C30.9708 16.6644 29.8569 15.5506 29.8567 14.1767L29.2939 14.1768ZM32.3447 17.2275V17.7903C34.3404 17.7903 35.959 16.1727 35.9593 14.1768L35.3965 14.1768L34.8337 14.1767C34.8335 15.5508 33.7191 16.6648 32.3447 16.6648V17.2275ZM35.3965 14.1768L35.9593 14.1767C35.9591 12.1809 34.3407 10.5622 32.3447 10.5622V11.125V11.6878C33.719 11.6878 34.8336 12.8025 34.8337 14.1768L35.3965 14.1768ZM95.1992 17.2266V16.6638H57.3633V17.2266V17.7893H95.1992V17.2266ZM57.3633 17.2266H57.9261V0.139648H57.3633H56.8005V17.2266H57.3633ZM57.3633 0.139648V0.702419H95.1992V0.139648V-0.423122H57.3633V0.139648ZM95.1992 0.139648H94.6365V17.2266H95.1992H95.762V0.139648H95.1992ZM65.2969 5.02148L65.2967 4.45871C63.3011 4.45917 61.6836 6.07783 61.6833 8.07317L62.2461 8.07324L62.8089 8.07332C62.809 6.69912 63.9232 5.58457 65.297 5.58425L65.2969 5.02148ZM62.2461 8.07324L61.6833 8.07325C61.6834 10.0691 63.3013 11.6863 65.2967 11.6868L65.2969 11.124L65.297 10.5613C63.9228 10.5609 62.8089 9.44724 62.8089 8.07323L62.2461 8.07324ZM65.2969 11.124L65.2969 11.6868C67.2926 11.6867 68.9114 10.0694 68.9114 8.07325L68.3486 8.07324L67.7859 8.07323C67.7858 9.44731 66.6714 10.5612 65.2969 10.5613L65.2969 11.124ZM68.3486 8.07324L68.9114 8.07317C68.9111 6.07751 67.2927 4.45879 65.2969 4.45871L65.2969 5.02148L65.2969 5.58425C66.671 5.58431 67.7857 6.69905 67.7859 8.07332L68.3486 8.07324Z" fill="#F5F5F7" fill-opacity="0.3" mask="url(#path-1-inside-1_0_46)"/>
</g>
</svg>
